<svg width="260" height="160" viewBox="0 0 260 160" fill="none" xmlns="http://www.w3.org/2000/svg">
<g clipPath="url(#clip0)">
<path fillRule="evenodd" clipRule="evenodd" d="M154.744 129C163.312 133.896 172.9 136.344 183.508 136.344C194.388 136.344 204.112 133.896 212.68 129C221.248 123.968 227.98 117.168 232.876 108.6C237.908 100.032 240.424 90.308 240.424 79.428C240.424 68.684 237.976 59.028 233.08 50.46C228.32 41.892 221.792 35.16 213.496 30.264C205.2 25.232 195.816 22.716 185.344 22.716C176.232 22.716 167.936 24.688 160.456 28.632C153.112 32.44 147.196 37.54 142.708 43.932V0H260V160H34.708V115.128C39.196 121.52 45.112 126.688 52.456 130.632C59.936 134.44 68.232 136.344 77.344 136.344C87.816 136.344 97.2 133.896 105.496 129C113.792 123.968 120.32 117.168 125.08 108.6C127.01 105.223 128.559 101.677 129.728 97.9618C130.935 101.815 132.542 105.497 134.548 109.008C139.58 117.44 146.312 124.104 154.744 129ZM19 160H34.708V175.104C34.708 177.552 33.96 179.456 32.464 180.816C31.104 182.312 29.268 183.06 26.956 183.06C24.508 183.06 22.536 182.312 21.04 180.816C19.68 179.456 19 177.552 19 175.104V160ZM19 160H0V0H127V54.4551C126.35 53.0966 125.642 51.7649 124.876 50.46C119.98 41.892 113.248 35.16 104.68 30.264C96.112 25.232 86.388 22.716 75.508 22.716C64.9 22.716 55.312 25.164 46.744 30.06C38.312 34.956 31.58 41.688 26.548 50.256C21.652 58.688 19.136 68.208 19 78.816V160ZM127 0V-16.044C127 -18.492 127.68 -20.396 129.04 -21.756C130.536 -23.252 132.508 -24 134.956 -24C137.268 -24 139.104 -23.252 140.464 -21.756C141.96 -20.396 142.708 -18.492 142.708 -16.044V0H127ZM204.724 116.556C198.468 120.228 191.396 122.064 183.508 122.064C175.756 122.064 168.752 120.228 162.496 116.556C156.24 112.748 151.344 107.648 147.808 101.256C144.272 94.864 142.504 87.588 142.504 79.428C142.504 71.404 144.272 64.196 147.808 57.804C151.344 51.276 156.24 46.176 162.496 42.504C168.752 38.832 175.756 36.996 183.508 36.996C191.396 36.996 198.468 38.832 204.724 42.504C210.98 46.176 215.876 51.276 219.412 57.804C223.084 64.196 224.92 71.404 224.92 79.428C224.92 87.588 223.084 94.864 219.412 101.256C215.876 107.648 210.98 112.748 204.724 116.556ZM96.724 116.556C90.468 120.228 83.396 122.064 75.508 122.064C67.756 122.064 60.752 120.228 54.496 116.556C48.24 112.884 43.344 107.852 39.808 101.46C36.272 94.932 34.504 87.656 34.504 79.632C34.504 71.472 36.272 64.196 39.808 57.804C43.344 51.412 48.24 46.38 54.496 42.708C60.752 38.9 67.756 36.996 75.508 36.996C83.396 36.996 90.468 38.9 96.724 42.708C102.98 46.38 107.876 51.412 111.412 57.804C115.084 64.196 116.92 71.472 116.92 79.632C116.92 87.656 115.084 94.932 111.412 101.46C107.876 107.852 102.98 112.884 96.724 116.556Z" fill="white"/>
</g>
<defs>
<clipPath id="clip0">
<rect width="260" height="160" fill="white"/>
</clipPath>
</defs>
</svg>
